<svg width="60" height="59" viewBox="0 0 60 59" fill="none" xmlns="http://www.w3.org/2000/svg">
<path fill-rule="evenodd" clip-rule="evenodd" d="M29.9445 0C13.4088 0 0 13.4076 0 29.9481C0 43.1802 8.58 54.4062 20.4779 58.3662C21.9744 58.6435 22.5238 57.7165 22.5238 56.9255C22.5238 56.2114 22.496 53.8522 22.4831 51.3497C14.1526 53.1614 12.3947 47.8162 12.3947 47.8162C11.0326 44.3545 9.06992 43.4341 9.06992 43.4341C6.35306 41.5753 9.27471 41.6135 9.27471 41.6135C12.2817 41.8243 13.865 44.6997 13.865 44.6997C16.5357 49.2782 20.8701 47.9545 22.5788 47.1893C22.8476 45.2542 23.6236 43.932 24.48 43.1846C17.8289 42.4273 10.8372 39.8594 10.8372 28.3839C10.8372 25.1142 12.0069 22.4426 13.9225 20.3453C13.6116 19.5905 12.5866 16.5449 14.2126 12.4197C14.2126 12.4197 16.7271 11.6148 22.4494 15.4896C24.838 14.826 27.3997 14.4932 29.9445 14.4818C32.4893 14.4932 35.0529 14.826 37.4459 15.4896C43.1613 11.6148 45.6724 12.4197 45.6724 12.4197C47.3023 16.5449 46.2769 19.5905 45.966 20.3453C47.8859 22.4426 49.0478 25.1142 49.0478 28.3839C49.0478 39.8867 42.0426 42.4194 35.3747 43.1608C36.4488 44.0902 37.4058 45.9128 37.4058 48.7069C37.4058 52.7135 37.3711 55.9386 37.3711 56.9255C37.3711 57.7225 37.9101 58.6563 39.4279 58.3623C51.3193 54.3977 59.8884 43.1757 59.8884 29.9481C59.8884 13.4076 46.4817 0 29.9445 0Z" fill="#232323"/>
<path fill-rule="evenodd" clip-rule="evenodd" d="M11.3415 42.9992C11.2756 43.1485 11.0415 43.1926 10.8283 43.0904C10.6111 42.9927 10.4891 42.7899 10.5595 42.6406C10.624 42.4874 10.8585 42.4452 11.0752 42.5469C11.2929 42.6451 11.4169 42.8499 11.3415 42.9992Z" fill="#232323"/>
<path fill-rule="evenodd" clip-rule="evenodd" d="M12.5544 44.352C12.4116 44.4844 12.1324 44.4229 11.943 44.2137C11.7471 44.0049 11.7104 43.7257 11.8552 43.5913C12.0025 43.4588 12.2732 43.5208 12.4696 43.7296C12.6654 43.9409 12.7036 44.2181 12.5544 44.352Z" fill="#232323"/>
<path fill-rule="evenodd" clip-rule="evenodd" d="M13.735 46.0769C13.5515 46.2044 13.2515 46.0848 13.0661 45.8185C12.8826 45.5522 12.8826 45.2328 13.07 45.1049C13.256 44.9769 13.5515 45.092 13.7395 45.3563C13.9224 45.6266 13.9224 45.9465 13.735 46.0769Z" fill="#232323"/>
<path fill-rule="evenodd" clip-rule="evenodd" d="M15.3526 47.7433C15.1885 47.9243 14.8389 47.8757 14.583 47.6288C14.3212 47.3872 14.2483 47.0446 14.4129 46.8635C14.579 46.682 14.9306 46.7331 15.1885 46.9781C15.4483 47.2191 15.5276 47.5643 15.3526 47.7433Z" fill="#232323"/>
<path fill-rule="evenodd" clip-rule="evenodd" d="M17.584 48.7109C17.5116 48.9455 17.1749 49.0521 16.8357 48.9524C16.4971 48.8497 16.2754 48.575 16.3438 48.3379C16.4142 48.1019 16.7524 47.9908 17.0941 48.0974C17.4323 48.1996 17.6544 48.4723 17.584 48.7109Z" fill="#232323"/>
<path fill-rule="evenodd" clip-rule="evenodd" d="M20.0346 48.8903C20.043 49.1373 19.7554 49.3421 19.3994 49.3461C19.0414 49.3545 18.7518 49.1547 18.7478 48.9117C18.7478 48.6622 19.029 48.4594 19.387 48.4534C19.743 48.4465 20.0346 48.6449 20.0346 48.8903Z" fill="#232323"/>
<path fill-rule="evenodd" clip-rule="evenodd" d="M22.315 48.5021C22.3577 48.7431 22.1102 48.9906 21.7567 49.0561C21.4091 49.12 21.0873 48.9713 21.0431 48.7322C21 48.4852 21.2519 48.2378 21.599 48.1738C21.9531 48.1123 22.2699 48.2571 22.315 48.5021Z" fill="#232323"/>
</svg>
