<svg width="217" height="108" viewBox="0 0 217 108" fill="none" xmlns="http://www.w3.org/2000/svg">
<rect width="217" height="108" rx="10" fill="#FB5B5A"/>
<path d="M59.6077 68.0162C57.1717 68.0162 55.2257 67.6662 53.7697 66.9662C52.3137 66.2662 51.2357 65.0902 50.5357 63.4382C49.8637 61.7862 49.5277 59.4762 49.5277 56.5082C49.5277 53.4282 49.8637 51.0622 50.5357 49.4102C51.2357 47.7582 52.2997 46.6102 53.7277 45.9662C55.1837 45.3222 57.1437 45.0002 59.6077 45.0002C62.0997 45.0002 64.0597 45.3362 65.4877 46.0082C66.9437 46.6522 68.0217 47.8142 68.7217 49.4942C69.4217 51.1462 69.7717 53.4842 69.7717 56.5082C69.7717 59.5322 69.4357 61.8702 68.7637 63.5222C68.0917 65.1742 67.0277 66.3362 65.5717 67.0082C64.1157 67.6802 62.1277 68.0162 59.6077 68.0162ZM59.6077 63.8582C60.8677 63.8582 61.8337 63.6902 62.5057 63.3542C63.2057 63.0182 63.7237 62.3322 64.0597 61.2962C64.3957 60.2322 64.5637 58.6222 64.5637 56.4662C64.5637 54.3382 64.3957 52.7562 64.0597 51.7202C63.7237 50.6562 63.2057 49.9702 62.5057 49.6622C61.8337 49.3262 60.8677 49.1582 59.6077 49.1582C58.3757 49.1582 57.4097 49.3262 56.7097 49.6622C56.0377 49.9702 55.5337 50.6562 55.1977 51.7202C54.8617 52.7562 54.6937 54.3382 54.6937 56.4662C54.6937 58.6222 54.8617 60.2322 55.1977 61.2962C55.5337 62.3322 56.0377 63.0182 56.7097 63.3542C57.4097 63.6902 58.3757 63.8582 59.6077 63.8582ZM74.3989 45.2942H78.6409L79.6069 47.6462C80.6429 46.8622 81.8189 46.2182 83.1349 45.7142C84.4789 45.1822 85.8089 44.9162 87.1249 44.9162C89.5889 44.9162 91.3669 45.6442 92.4589 47.1002C93.5509 48.5282 94.0969 50.4322 94.0969 52.8122V67.8062H88.8889V53.4422C88.8889 52.2382 88.5529 51.3002 87.8809 50.6282C87.2089 49.9562 86.2989 49.6202 85.1509 49.6202C84.1149 49.6202 83.1629 49.7742 82.2949 50.0822C81.4269 50.3902 80.5309 50.8522 79.6069 51.4682V67.8062H74.3989V45.2942ZM97.2794 45.2942H102.613L108.241 62.9762L113.995 45.2942H119.287L111.097 67.8062H105.133L97.2794 45.2942ZM130.929 68.0162C128.437 68.0162 126.477 67.6802 125.049 67.0082C123.649 66.3082 122.627 65.1462 121.983 63.5222C121.367 61.8702 121.059 59.5462 121.059 56.5502C121.059 53.4982 121.353 51.1462 121.941 49.4942C122.557 47.8422 123.551 46.6802 124.923 46.0082C126.323 45.3362 128.283 45.0002 130.803 45.0002C133.015 45.0002 134.765 45.2242 136.053 45.6722C137.341 46.1202 138.279 46.9042 138.867 48.0242C139.455 49.1162 139.749 50.6562 139.749 52.6442C139.749 54.7162 139.147 56.2002 137.943 57.0962C136.767 57.9922 135.045 58.4402 132.777 58.4402H126.183C126.239 59.8962 126.435 61.0302 126.771 61.8422C127.107 62.6262 127.695 63.2002 128.535 63.5642C129.403 63.9282 130.649 64.1102 132.273 64.1102H139.077V67.1762C137.565 67.4562 136.207 67.6662 135.003 67.8062C133.827 67.9462 132.469 68.0162 130.929 68.0162ZM132.273 55.2902C133.281 55.2902 134.009 55.0942 134.457 54.7022C134.905 54.3102 135.129 53.6242 135.129 52.6442C135.129 51.1882 134.807 50.1802 134.163 49.6202C133.519 49.0602 132.399 48.7802 130.803 48.7802C129.599 48.7802 128.661 48.9762 127.989 49.3682C127.345 49.7322 126.869 50.3762 126.561 51.3002C126.281 52.2242 126.141 53.5542 126.141 55.2902H132.273ZM144.918 67.8482C144.694 67.8482 144.498 67.7782 144.33 67.6382C144.19 67.4982 144.12 67.3162 144.12 67.0922V63.1022C144.12 62.5702 144.386 62.3042 144.918 62.3042H147.9C148.432 62.3042 148.698 62.5702 148.698 63.1022V67.0922C148.698 67.5962 148.432 67.8482 147.9 67.8482H144.918ZM153.682 45.2942H157.714L158.89 48.9062C159.87 47.6742 160.906 46.7222 161.998 46.0502C163.118 45.3502 164.378 45.0002 165.778 45.0002C166.45 45.0002 167.08 45.0842 167.668 45.2522V50.5442C166.604 50.4322 165.75 50.3762 165.106 50.3762C163.79 50.3762 162.656 50.6002 161.704 51.0482C160.752 51.4682 159.814 52.1542 158.89 53.1062V67.8062H153.682V45.2942ZM179.342 68.0582C177.858 68.0582 176.234 67.9742 174.47 67.8062C172.706 67.6662 171.432 67.4562 170.648 67.1762V64.1102H180.35C181.498 64.1102 182.324 63.9562 182.828 63.6482C183.36 63.3402 183.626 62.7102 183.626 61.7582V60.9602C183.626 60.2042 183.374 59.6442 182.87 59.2802C182.394 58.8882 181.61 58.6922 180.518 58.6922H177.116C172.58 58.6922 170.312 56.7182 170.312 52.7702V51.5102C170.312 49.3262 170.97 47.7162 172.286 46.6802C173.602 45.6162 175.828 45.0842 178.964 45.0842C180.224 45.0842 181.666 45.1822 183.29 45.3782C184.942 45.5462 186.216 45.7422 187.112 45.9662V49.0322H177.956C176.864 49.0322 176.052 49.2282 175.52 49.6202C175.016 49.9842 174.764 50.6142 174.764 51.5102V52.3082C174.764 53.1762 175.03 53.7642 175.562 54.0722C176.094 54.3522 176.934 54.4922 178.082 54.4922H181.568C183.724 54.4922 185.348 54.9962 186.44 56.0042C187.532 57.0122 188.078 58.4402 188.078 60.2882V62.1362C188.078 64.3202 187.35 65.8602 185.894 66.7562C184.438 67.6242 182.254 68.0582 179.342 68.0582Z" fill="#003F5C"/>
<path d="M82 26.4226L69.5 30.4228C62.5 20.4228 27 18.9225 27 51.3962C27 83.8731 62.8737 82.3727 69.9474 72.3717L82.5789 76.3722C76.5158 96.3741 16 98.4911 16 51.3962C16 4.30598 76 6.42278 82 26.4226Z" fill="#003F5C"/>
</svg>
